<svg xmlns="http://www.w3.org/2000/svg" width="109" height="46" viewBox="0 0 109 46">
  <g id="Group_5" data-name="Group 5" transform="translate(283 -250)">
    <path id="Subtraction_2" data-name="Subtraction 2" d="M93,46H16A16,16,0,0,1,0,30V16A16,16,0,0,1,16,0H93a16,16,0,0,1,16,16V30A16,16,0,0,1,93,46ZM24.148,27.949a7.623,7.623,0,0,0,1.274,4.36,8.552,8.552,0,0,0,3.7,2.962A13.141,13.141,0,0,0,34.5,36.352a11.052,11.052,0,0,0,6.767-1.89,6.185,6.185,0,0,0,2.514-5.212,6.715,6.715,0,0,0-2.056-4.992A16.056,16.056,0,0,0,35.169,20.9a14.267,14.267,0,0,1-3.7-1.582,2.48,2.48,0,0,1-1.257-2.092,2.589,2.589,0,0,1,1.073-2.154,4.886,4.886,0,0,1,3.005-.817,4.575,4.575,0,0,1,3.112.976,3.467,3.467,0,0,1,1.107,2.733h5.273A7.368,7.368,0,0,0,42.6,13.852a7.814,7.814,0,0,0-3.331-2.8,11.554,11.554,0,0,0-4.887-.994,12.7,12.7,0,0,0-4.913.914,7.661,7.661,0,0,0-3.357,2.54,6.435,6.435,0,0,0-.079,7.282,9.153,9.153,0,0,0,3.27,2.764A27.009,27.009,0,0,0,33.64,25.3a13.943,13.943,0,0,1,3.8,1.688,2.719,2.719,0,0,1,1.054,2.294,2.5,2.5,0,0,1-1.054,2.136,4.947,4.947,0,0,1-2.936.765,5.833,5.833,0,0,1-3.8-1.059,3.924,3.924,0,0,1-1.266-3.177ZM74,11V36.184L99.184,23.592ZM50.264,16.945,57.154,36h3.622l6.905-19.066h0L67.156,29v7h5.291V10.407H65.522L58.982,28.969,52.409,10.407h-6.89V36h5.273V29Z" transform="translate(-283 250)" fill="#f98150"/>
    <g id="Group_4" data-name="Group 4">
      <path id="Path_4" data-name="Path 4" d="M-260,261s-7.068,12.291,0,24.533" transform="translate(-7)" fill="none" stroke="#fff" stroke-width="3"/>
      <path id="Path_5" data-name="Path 5" d="M-260,261s-7.068,12.291,0,24.533" transform="translate(-1)" fill="none" stroke="#fff" stroke-width="3"/>
    </g>
  </g>
</svg>
